<svg id="Layer_1" data-name="Layer 1" xmlns="http://www.w3.org/2000/svg" viewBox="0 0 1080 1080"><defs><style>.cls-1{fill:#d93617;}.cls-2,.cls-7{fill:none;}.cls-3{fill:#b82e18;}.cls-4{fill:#e94f1a;}.cls-5{opacity:0.41;}.cls-6{fill:#fff;}.cls-7{stroke:#1d1d1b;stroke-miterlimit:10;stroke-width:16px;}.cls-8{fill:#1d1d1b;}</style></defs><circle class="cls-1" cx="540" cy="671.77" r="292.05"/><path class="cls-2" d="M540,379.72c-161.29,0-292,130.76-292,292q0,7.11.35,14.14c.61-.6,1-1,1.25-1.18,67.78-61.51,162.63-31.91,175.57-27.64,71.26,23.52,104.94,82.26,133.32,131.76C586.06,837,628.8,911.58,601.21,957.37c131.9-28.13,230.84-145.3,230.84-285.6C832.05,510.48,701.29,379.72,540,379.72Z"/><path class="cls-3" d="M558.44,788.85c-28.38-49.5-62.06-108.24-133.32-131.76-12.94-4.27-107.79-33.87-175.57,27.64-.21.18-.64.58-1.25,1.18C255.67,840.63,383.45,963.82,540,963.82a292.49,292.49,0,0,0,61.21-6.45C628.8,911.58,586.06,837,558.44,788.85Z"/><path class="cls-1" d="M582.2,700.05c-25.46-24.13-44.28-44.46-75.24-61-23.5-12.52-57-33.62-105.48-39.14-19.69-2.24-88.43-10.07-146.23,34.53-1.73,1.34-3.4,2.69-5,4.06A294.32,294.32,0,0,0,248,675q0,7.11.35,14.14c.61-.6,1-1,1.25-1.18,67.78-61.51,162.63-31.91,175.57-27.64,71.26,23.52,104.94,82.26,133.32,131.76,27.62,48.17,70.36,122.73,42.77,168.53A290.27,290.27,0,0,0,692,924.42c7-34-12.3-65.34-31.64-116C645.58,769.75,612.21,728.5,582.2,700.05Z"/><path class="cls-4" d="M695.56,681.48c-21-50.29-50.88-121.78-127.44-176.16C539.87,485.26,466.29,433,365.47,446c-2.16.27-6.82.92-13.36,2.2A291.58,291.58,0,0,0,250.78,631.12c57.14-42,123.81-34.42,143.15-32.21,48.44,5.51,82,26.61,105.48,39.14,31,16.49,49.78,36.82,75.24,61,30,28.44,63.38,69.7,78.11,108.33,19.34,50.69,38.67,82,31.64,116a290.37,290.37,0,0,1-67.25,30.13A291.32,291.32,0,0,0,728,895.28C737.16,829,720.55,741.31,695.56,681.48Z"/><path class="cls-4" d="M444.68,432.81c-25.52-4.47-40.32-3.51-42.48-10.8-2.08-7,9.19-16.06,13-19.08,18.42-14.78,32.22-9.46,76-18.72C512.93,379.6,525.21,375,530,381c2.16,2.72,2,6.67-1.08,17.64-7.74,27.14-11.61,40.71-20.88,46.08C495.51,451.94,487.94,440.39,444.68,432.81Z"/><path class="cls-4" d="M520.28,457.29c-3.06-8.73,14.32-14.85,23.4-36.72,8.46-20.37,7.52-33.65,8.64-45.9.21-2.24,30.93,1.42,70.92,11.34,22.81,5.66,43.85,13.3,52.92,28.8,4.14,7.08,3,11,2.52,12.24-2.61,6.88-13.33,7.61-22.32,9.72C624,444.38,600,473.33,576.08,481.05a20.5,20.5,0,0,1-7.2,1.08c-8.47-.32-13.5-6.21-19.44-10.8C533.89,459.3,522.77,464.38,520.28,457.29Z"/><path class="cls-4" d="M591.32,499.17c-2.66-13.83,30.57-32.55,53.52-41.52,21.71-8.48,46.41-18.13,74.88-10.8,58.36,15,85.26,89.18,76.8,97-2.1,1.93-5.58-.95-33.6-10.08-5.75-1.87-19.31-6.29-28.32-8.64-39-10.16-83.8-5.16-90.72,10.56-.75,1.7-1.83,5.3-4.32,5.76-4.15.77-8.36-7.93-12.48-13.92C612.81,506.75,593.28,509.37,591.32,499.17Z"/><path class="cls-4" d="M758.6,857.25c-6.29-1.88,7.06-32.59-1-94.56-7-54.46-25.61-94.37-35-114.24a415.35,415.35,0,0,0-65.88-99,163,163,0,0,1,88.56,2.88c5.06,1.62,49.58,16.36,73.08,48.24C880.73,685.18,774,861.85,758.6,857.25Z"/><g class="cls-5"><path class="cls-6" d="M489.92,429.93A62.72,62.72,0,0,0,464,417c-12.67-3-24.5.3-29.88,1.56,7.84.68,18.11.39,27.84,2.64A191.75,191.75,0,0,1,489.92,429.93Z"/><path class="cls-6" d="M648.56,421.89a87.36,87.36,0,0,0-73.32,40.68,334.58,334.58,0,0,1,73.32-40.68Z"/><path class="cls-6" d="M768.68,508.77c-4.27-6.61-12.62-15.78-21.51-25.83-2.47-2.79-21.07-23.67-24.33-21.33-2.36,1.69,4.37,14.78,5,16.08a63.18,63.18,0,0,0,9.72,13.8c5.07,3.58,10.78,7.12,16.95,10.8C758.78,504.81,764.6,508.05,768.68,508.77Z"/><path class="cls-6" d="M771.74,753.57c3-15.86,4.79-53.49-11.7-96.48-14.84-38.67-43.78-57.68-56.16-68,12.51,23.66,31.86,47.07,43.35,79.5C758.17,699.4,766.59,728.34,771.74,753.57Z"/><path class="cls-6" d="M608.12,548.37a60.33,60.33,0,0,0-21.6,10.08c-27.44,20.48-27.18,59.13-27.12,68.4.06,8.3,2.83,21.95,9.12,38.16,1.82-16.41,2.9-39.67,11.16-63S595.52,563.85,608.12,548.37Z"/><path class="cls-6" d="M525,506.85c-8.84,2.3-32,9-50,28.32-21,22.45-21.65,47.9-22.68,56.64A418,418,0,0,1,490.65,543C502.47,529.88,513.91,516.67,525,506.85Z"/><path class="cls-6" d="M455.3,472.41a133.08,133.08,0,0,1-81.36,26.64,337.08,337.08,0,0,1,81.36-26.64Z"/></g><path class="cls-7" d="M399.35,415.76c-36.47-27.68,35.51-68.59,140.65-68.59s216.51,46.34,168.15,84.61"/><path class="cls-8" d="M396.2,361.35c4.13-31,7.81-62.15,3.5-93.3-2-14.69-5.66-29.53-11.69-43.12-2.29-5.17-4.93-10.45-7.66-15.41-2.83-5.16-7.19-9.26-13.16-10.22s-10.36,3.26-9.23,9.23a107.39,107.39,0,0,0,29.36,55.37c13.59,13.62,38.12,30.6,54.56,11.2,6.2-7.32,8.62-16.72,10.25-26a339,339,0,0,0,4.53-35.5,210.72,210.72,0,0,0-4.1-59.7c-1.65-7.52-2.61-19-10-23s-13.76,2.21-14.14,9.56c-.41,7.74,2.39,16.08,4.95,23.25,3.46,9.74,8.1,18.8,13,27.86,7.31,13.51,14,27.48,23.3,39.76,8.62,11.36,21,22.4,35.68,13.83,8.58-5,14-14.28,17.9-23.1,4.41-9.89,7.91-20.23,11.51-30.43,9.69-27.48,17-55.77,12.47-85-1.14-7.31-13.07-7-14.46,0-4.18,21.11-4.14,42.9,1.85,63.68,5.1,17.67,14.23,38,29.44,49.21,12.88,9.52,31.8,9.28,45.55,1.6a62,62,0,0,0,19.69-17.67c5.68-7.9,9.87-17.15,15.08-25.42,11-17.52,20.46-35,14.89-56.28-1.52-5.81-11-7.84-13.71-1.8a100.58,100.58,0,0,0-9.29,38.71c-.4,13.24,1.81,26.5,4.49,39.41,4,19.37,14.74,52.11,41,43.86C704,235,715,213.7,729.3,197.39a52.19,52.19,0,0,0,10.81-20c2-7.43,5.83-20.56-2.93-25.3-11-6-18.07,9.69-20.72,17.44-4.44,13-6,25.58-6.5,39.22-.66,18.73-3,48,16.78,58.26,8.44,4.39,18.75,5.46,28.1,4.48,10.16-1.07,18.15-5,26.32-11,7.38-5.38,16.06-14.47,17.57-23.65,1.69-10.27-8.07-19.33-18-14.51-11.49,5.58-16.44,18-20.69,29.06-5,13.06-10.73,25.82-16.09,38.73C732.86,316.78,722.66,344.79,723,374l11.28-6.47c-63-43.83-139.54-61.06-215.55-55.25a460.7,460.7,0,0,0-65.45,9.94c-9.42,2.1-5.44,16.57,4,14.46,71.09-15.88,147-15.27,214.82,13.43a301.63,301.63,0,0,1,54.63,30.37c4.74,3.3,11.36-1.11,11.29-6.48-.5-40.19,20-77.19,34.47-113.55,3.18-8,5.22-15.8,11.51-22,.36-.35,3.51-2.61,3.49-2.81.21,1.9-4.24-1.53-3.36-1.33-1.22-.28,1.15-.92-.2.3a27.87,27.87,0,0,0-1.53,3,55.17,55.17,0,0,1-3.78,4.84,39,39,0,0,1-34.16,14.19c-6.6-.61-12.87-2.47-16-8.73-3.73-7.37-3.79-17.41-4-25.49-.18-7.65.28-15.55.71-23.18a82.86,82.86,0,0,1,7.38-29.95c.54-1.13,1.7-2.42,2.13-3.54.49-1.3,2.52.21-3.13-1.33l-3.51-1a4.26,4.26,0,0,0-.34-.49c-.26.24-.69,4.28-.81,4.85-.4,1.87-.75,3.76-1.25,5.6a27.93,27.93,0,0,1-2.79,6.46c-1,1.78-1.92,3.54-2.92,5.3-.27.47-.55.93-.87,1.38.35-.5,1-1.18.18-.35-11.38,12-18.58,26.71-32.5,36.37C683.26,225,679,228,674.58,228.2s-7-2.85-9.25-6.23c-5.78-8.47-8-18-10.1-27.87-4.68-22.48-6.43-45.11,3.29-66.56l-13.71-1.8c3.8,14.5-2.21,26.67-9.68,38.82-4.59,7.46-9.42,14.77-13.66,22.44-3.7,6.7-7.25,12.19-13.31,17.06-9.1,7.33-23.1,10.87-33.68,4.47-5.41-3.28-9.34-8.59-12.65-13.87a111.62,111.62,0,0,1-11.48-24.24c-6.36-19.36-7.06-39.87-3.12-59.8H532.77c3.23,20.75-1.1,41.6-7.24,61.39-3,9.74-6.54,19.32-10,28.91-2.4,6.64-4.75,13.31-8.09,19.54-2.79,5.2-6.16,10.52-11.83,12.78-1.18.47-.21.59-1.83.22,1.51.34-1.22-.43-1.51-.56,1,.42-1.55-1-1.75-1.13a19.9,19.9,0,0,1-2.39-2c-9.25-8.61-15.4-20.65-21.32-31.64-6.48-12.05-13.69-24.07-18.43-36.93a85.18,85.18,0,0,1-5-19.27,8.71,8.71,0,0,0,0-1.45c.65,1.78-.57.48,0,.27l-.41,1-6.64,2.75c-1-.19-.73-.48-1.39-.77-1.54-.68-1-2.33-.58-.19.17.86.51,1.75.75,2.61q.92,3.26,1.73,6.54A185.09,185.09,0,0,1,442.24,198c-.05,18.25-1.64,37.49-6.19,55.2-1.74,6.82-5,15.89-13.48,15.78-8.7-.1-17.69-8.85-23.56-14.56a93.58,93.58,0,0,1-26.58-49.83l-9.23,9.22c3.93.64,4.83,4.55,6.38,7.88,2.44,5.2,5.32,10,7.23,15.48a170,170,0,0,1,9,40.43c2.61,28-.93,56.07-4.63,83.8-.54,4,3.83,7.5,7.5,7.5,4.5,0,7-3.47,7.5-7.5Z"/><path class="cls-8" d="M751.85,459.92a304,304,0,0,0-34.09-29.4q-9.84-7.27-20.17-13.68a298.85,298.85,0,0,0-349.65,25q-10.23,8.56-19.79,18.12a299.53,299.53,0,0,0-61.8,89.49q-1.87,4.2-3.63,8.44A300.32,300.32,0,0,0,327.55,883l.6.61c1.47,1.47,3,2.93,4.46,4.36q4.18,4,8.49,7.85a297,297,0,0,0,178.82,74.88h0q10,.66,20.06.66a297.34,297.34,0,0,0,194.68-71.85q8.84-7.57,17.17-15.9,3.3-3.3,6.49-6.7a299.6,299.6,0,0,0-6.49-417ZM792.64,543a151,151,0,0,0-74.19-27c-29.59-2.42-55.26,2.29-76.42,14a431.39,431.39,0,0,0-53.82-45.13c30.57-23.71,65.72-43.18,105.84-51.09A285.53,285.53,0,0,1,792.64,543ZM567.09,757.59c0,28.21.08,60.19-7.85,112.67-5.44,36-13.7,73.66-33.5,84.75h0A282.55,282.55,0,0,1,345.21,877.7c27.47-115.2,77.92-215.91,150.2-299.7,22-25.51,49-56.78,81.46-84A413.77,413.77,0,0,1,630,537.78c-39.46,29.7-48.29,81.91-56.85,132.5C567,706.59,567.05,731.36,567.09,757.59Zm7.13-282.2A374.68,374.68,0,0,0,517,445c10.2-16.53,18-35.53,23.2-56.81A281.83,281.83,0,0,1,674.2,422C636.35,432.48,603.18,452.26,574.22,475.39Zm-47.49-86.91c-5.09,19.35-12.48,36.59-22.05,51.56a323.73,323.73,0,0,0-34.6-11,274.46,274.46,0,0,0-61.23-8.72A281.46,281.46,0,0,1,526.73,388.48ZM383.8,435.17c26-2.36,53.85.09,82.82,7.48q14.92,3.81,29.7,9.2c-16.94,21.63-39.21,37.49-66.26,46.94-19.19,6.71-40.49,10.66-61.09,14.48-5.28,1-10.73,2-16,3a289.49,289.49,0,0,0-62,19.85A285.5,285.5,0,0,1,383.8,435.17ZM256.4,671.77a281.72,281.72,0,0,1,24.91-116.18h0c20-11.21,48.18-21.44,74.15-26.53,5.22-1,10.64-2,15.88-3,21.08-3.91,42.88-7.95,63-15,30.86-10.78,56-29.13,74.66-54.27a357,357,0,0,1,53.91,28C531.26,512,505,542.44,483.29,567.56,438,620,400.65,680,372.16,745.81A778.49,778.49,0,0,0,332,864.38,282.49,282.49,0,0,1,256.4,671.77ZM545,955.32c15.17-18.4,22.09-50.23,27.06-83.11,8.08-53.46,8-86,8-114.64,0-26.77-.08-49.9,5.88-85.12,8.23-48.65,16.73-98.89,53.32-125.36q11.26,11.63,21.84,24.26c78.48,93.82,108.25,207.46,85.71,294.25A282.86,282.86,0,0,1,545,955.32Zm222.37-170.8c-5.51-76.2-39.44-155.09-95.54-222.15Q662,550.6,651.56,539.65c18.28-9.2,40.37-12.81,65.83-10.72,43,3.51,72.58,26.4,87.23,40.8h0a283.29,283.29,0,0,1-39,273.67A275.72,275.72,0,0,0,767.41,784.52Z"/></svg>